<?xml version="1.0" standalone="no"?><!DOCTYPE svg PUBLIC "-//W3C//DTD SVG 1.1//EN" "http://www.w3.org/Graphics/SVG/1.1/DTD/svg11.dtd"><svg t="1553503961664" class="icon" style="" viewBox="0 0 1024 1024" version="1.1" xmlns="http://www.w3.org/2000/svg" p-id="1989" xmlns:xlink="http://www.w3.org/1999/xlink" width="200" height="200"><defs><style type="text/css"></style></defs><path d="M661.902222 226.702222h-453.518222v67.527111h188.529778v504.661334h75.719111v-504.661334h189.269333z" fill="#0288D1" p-id="1990"></path><path d="M834.730667 643.584c-9.614222-13.767111-22.755556-24.291556-39.537778-31.516444s-46.364444-16.497778-88.803556-27.818667a934.684444 934.684444 0 0 1-53.020444-15.36 52.394667 52.394667 0 0 1-22.983111-15.985778 32.995556 32.995556 0 0 1-7.338667-20.992c0-12.231111 5.916444-22.869333 17.692445-32.028444 11.719111-9.102222 31.402667-13.653333 58.993777-13.653334 23.324444 0 41.358222 5.12 54.101334 15.36s20.536889 24.462222 23.210666 42.666667l58.652445-8.021333c-3.811556-22.869333-10.695111-41.187556-20.650667-54.840889s-25.543111-24.519111-46.535111-32.483556-45.397333-12.003556-73.102222-12.003555a181.475556 181.475556 0 0 0-51.882667 7.168 124.188444 124.188444 0 0 0-38.115555 17.521777c-12.458667 8.874667-22.300444 20.081778-29.525334 33.507556s-10.808889 28.046222-10.808889 43.861333c0 17.351111 4.380444 33.166222 13.141334 47.502223s21.674667 25.543111 38.684444 33.678222 47.502222 17.749333 91.477333 28.842666c32.654222 8.248889 53.077333 15.018667 61.326223 20.309334a36.579556 36.579556 0 0 1 17.692444 32.028444c0 15.132444-6.656 28.273778-20.024889 39.480889s-33.848889 16.839111-61.326222 16.839111c-27.306667 0-48.64-6.314667-63.886222-19.000889-15.189333-12.686222-24.462222-30.890667-27.761778-54.670222l-59.335111 9.329778c6.656 37.546667 22.072889 65.877333 46.193778 84.992s59.164444 28.672 105.187555 28.672c27.704889 0 52.679111-4.835556 74.695111-14.506667s38.798222-23.324444 50.460445-41.016889 17.578667-36.522667 17.578666-56.490666c-0.113778-20.536889-4.949333-37.603556-14.449777-51.370667z" fill="#0288D1" p-id="1991"></path></svg>