<?xml version="1.0" standalone="no"?><!DOCTYPE svg PUBLIC "-//W3C//DTD SVG 1.1//EN" "http://www.w3.org/Graphics/SVG/1.1/DTD/svg11.dtd"><svg t="1554360457291" class="icon" style="" viewBox="0 0 1024 1024" version="1.1" xmlns="http://www.w3.org/2000/svg" p-id="17169" xmlns:xlink="http://www.w3.org/1999/xlink" width="200" height="200"><defs><style type="text/css"></style></defs><path d="M302.144 692.48c0 9.92 3.989333 19.669333 11.029333 26.709333 7.04 7.04 16.810667 11.050667 26.730667 11.050667 9.92 0 19.669333-4.010667 26.709333-11.050667 7.04-7.04 11.050667-16.789333 11.050667-26.709333 0-9.92-4.010667-19.690667-11.050667-26.730667a38.058667 38.058667 0 0 0-26.709333-11.029333c-9.92 0-19.690667 3.989333-26.730667 11.029333-6.869333 7.04-11.029333 16.810667-11.029333 26.730667z m315.669333 0c0 9.92 4.010667 19.669333 11.029334 26.709333 7.04 7.04 16.810667 11.050667 26.730666 11.050667 9.92 0 19.669333-4.010667 26.730667-11.050667 7.04-7.04 11.029333-16.789333 11.029333-26.709333 0-9.92-4.010667-19.690667-11.029333-26.730667a38.058667 38.058667 0 0 0-26.730667-11.029333c-9.92 0-19.669333 3.989333-26.730666 11.029333-7.04 7.04-11.029333 16.810667-11.029334 26.730667z m275.84-413.290667s36.010667-19.349333-2.730666-52.629333c0 0-34.56-8.32-41.6-5.610667 0 0-17.92-60.949333-53.909334-76.16 0 0-30.549333-7.36-37.44 22.250667 0 0-80.96-41.130667-139.52-51.52 0 0-149.44-28.8-189.610666-98.24 0 0-8.64-17.6-36.949334-7.210667 0 0-27.050667 21.44-18.730666 107.370667 0 0 2.24 17.6-113.109334-56.32 0 0-28.650667-7.36-36.970666 14.72 0 0-14.72 52.629333 3.690666 91.349333 0 0-66.410667 12.010667-95.04 40.64 0 0-32.32 41.6 22.08 48 0 0-81.130667 46.08-95.04 176.32 0 0-1.6 91.370667 27.669334 192.64a115.690667 115.690667 0 0 0 92.8 155.349334 344 344 0 0 0 84.010666 136.170666A343.701333 343.701333 0 0 0 507.882667 1017.6c92.330667 0 179.2-36.010667 244.650666-101.290667a343.402667 343.402667 0 0 0 85.12-139.52 115.925333 115.925333 0 0 0 100.010667-96.469333 114.453333 114.453333 0 0 0-10.88-70.250667c17.92-53.589333 33.749333-119.68 29.269333-179.989333 0 0-11.2-95.530667-62.4-150.890667zM171.733333 762.389333a99.882667 99.882667 0 0 1-76.330666-86.4 95.296 95.296 0 0 1 0.170666-22.4 483.84 483.84 0 0 0 26.88 63.530667s21.909333 21.909333 44.48 13.76c0.96 5.589333 2.069333 11.029333 3.2 16.469333l1.6 15.04zM507.733333 1001.6c-157.12 0-288.810667-110.4-321.92-257.6l-2.730666-24.96c2.56-3.050667 5.12-6.72 7.530666-11.050667 0 0 2.88-102.549333 63.829334-163.349333 0 0 53.610667 14.869333 121.92-23.04 0 0-28.629333 35.029333-54.549334 53.589333 0 0-14.72 36.010667 18.389334 39.68 0 0 102.4 19.370667 204.970666-48 0 0-5.610667 34.090667 43.349334 24 0 0 39.68-0.96 103.36-49.92 0 0 13.930667 23.04 65.92-5.589333 0 0-1.28 45.589333 40.170666 116.309333 0 0 18.069333 29.44 18.069334 81.130667 0 0 4.8 3.84 11.84 7.36l-4.309334 26.56C782.762667 902.4 656.704 1001.6 507.733333 1001.6z m413.909334-323.84a99.968 99.968 0 0 1-79.189334 82.069333c1.28-4.8 2.389333-9.749333 3.52-14.72 12.48 0.64 26.24-5.12 35.349334-28.309333 0 0 18.56-34.410667 37.290666-84.16 4.309333 14.08 5.44 29.589333 3.029334 45.12z" fill="#454545" p-id="17170"></path></svg>