<?xml version="1.0" standalone="no"?><!DOCTYPE svg PUBLIC "-//W3C//DTD SVG 1.1//EN" "http://www.w3.org/Graphics/SVG/1.1/DTD/svg11.dtd"><svg t="1553503340389" class="icon" style="" viewBox="0 0 1024 1024" version="1.1" xmlns="http://www.w3.org/2000/svg" p-id="3398" xmlns:xlink="http://www.w3.org/1999/xlink" width="200" height="200"><defs><style type="text/css"></style></defs><path d="M689.344 767.488a146.048 146.048 0 0 1-104.448-48.576v82.56c67.52 43.904 183.68 35.84 224-16.896a121.6 121.6 0 0 0 16.192-120.896c-41.984-84.544-141.696-89.6-170.752-143.232-32-86.464 100.096-102.4 163.648-43.84V398.976a182.144 182.144 0 0 0-100.224-17.728 122.816 122.816 0 0 0-132.288 119.488c-3.456 96 106.432 121.024 161.6 165.504 37.504 31.872 34.816 108.992-57.728 101.248z m-314.432 55.168V449.024H254.528v-61.76h307.2v61.76H441.6v373.632H374.848zM904 120v784H120V120h784zM960 64H64v896h896V64z" fill="#1E9CEF" p-id="3399"></path></svg>