<?xml version="1.0" standalone="no"?><!DOCTYPE svg PUBLIC "-//W3C//DTD SVG 1.1//EN" "http://www.w3.org/Graphics/SVG/1.1/DTD/svg11.dtd"><svg t="1554360508757" class="icon" style="" viewBox="0 0 1024 1024" version="1.1" xmlns="http://www.w3.org/2000/svg" p-id="17294" xmlns:xlink="http://www.w3.org/1999/xlink" width="200" height="200"><defs><style type="text/css"></style></defs><path d="M1024 512c0 203.2-117.6 378.4-288.8 460.8C668 1005.6 592 1016 512 1016c-82.4 0-160.8-11.2-229.6-46.4C115.2 885.6 0 712 0 512 0 229.6 229.6 0 512 0s512 229.6 512 512z" fill="#3AD0F9" p-id="17295"></path><path d="M512 1024c80.8 0 156.8-17.6 224-51.2C724.8 857.6 627.2 768 508.8 768c-117.6 0-213.6 88-227.2 202.4 69.6 34.4 148 53.6 230.4 53.6z" fill="#EAEAEA" p-id="17296"></path><path d="M508.8 759.2c-120 0-219.2 88-234.4 206.4 4.8 2.4 10.4 5.6 15.2 8C300.8 860.8 395.2 776 508.8 776s207.2 86.4 219.2 200.8c4.8-2.4 10.4-4.8 15.2-7.2-15.2-120.8-114.4-210.4-234.4-210.4z" fill="#6B3C1C" p-id="17297"></path><path d="M543.2 796.8c0 18.4-12 33.6-29.6 33.6-18.4 0-34.4-15.2-34.4-33.6v-71.2c0-18.4 16-33.6 34.4-33.6s29.6 15.2 29.6 33.6v71.2z" fill="#F9D4CA" p-id="17298"></path><path d="M276 508m-43.2 0a43.2 43.2 0 1 0 86.4 0 43.2 43.2 0 1 0-86.4 0Z" fill="#F9D4CA" p-id="17299"></path><path d="M276 560c-28.8 0-52-23.2-52-51.2 0-28.8 23.2-51.2 52-51.2s52 23.2 52 51.2c-0.8 28-24 51.2-52 51.2z m0-87.2c-20 0-36 16-36 35.2 0 20 16 35.2 36 35.2s36-16 36-35.2c-0.8-19.2-16.8-35.2-36-35.2z" fill="#6B3C1C" p-id="17300"></path><path d="M747.2 508m-43.2 0a43.2 43.2 0 1 0 86.4 0 43.2 43.2 0 1 0-86.4 0Z" fill="#F9D4CA" p-id="17301"></path><path d="M514.4 840c-23.2 0-42.4-18.4-42.4-41.6v-72c0-23.2 19.2-41.6 42.4-41.6 21.6 0 37.6 17.6 37.6 41.6v72c0 24-16 41.6-37.6 41.6z m0-139.2c-14.4 0-26.4 12-26.4 25.6v72c0 13.6 12 25.6 26.4 25.6 15.2 0 21.6-13.6 21.6-25.6v-72c0-12.8-7.2-25.6-21.6-25.6zM748 560c-28.8 0-52-23.2-52-51.2 0-28.8 23.2-51.2 52-51.2s52 23.2 52 51.2c0 28-23.2 51.2-52 51.2z m0-87.2c-20 0-36 16-36 35.2 0 20 16 35.2 36 35.2s36-16 36-35.2c0-19.2-16-35.2-36-35.2z" fill="#6B3C1C" p-id="17302"></path><path d="M511.2 219.2c119.2 0 216 96.8 216 216v86.4c0 119.2-96.8 216-216 216s-216-96.8-216-216V434.4c0-118.4 96.8-215.2 216-215.2z" fill="#F9D4CA" p-id="17303"></path><path d="M368 526.4c0-16.8 14.4-30.4 32-30.4s32 13.6 32 30.4" p-id="17304"></path><path d="M511.2 692c-119.2 0-216-96.8-216-216v44.8c0 119.2 96.8 216 216 216s216-96.8 216-216v-44.8c-0.8 120-96.8 216-216 216z" fill="#EFBFB4" p-id="17305"></path><path d="M511.2 744C388 744 288 644 288 520.8V434.4c0-123.2 100-224 223.2-224 124 0 224.8 100 224.8 224v86.4C736 644 635.2 744 511.2 744z m0-516.8c-115.2 0-208 93.6-208 208v86.4c0 113.6 93.6 206.4 208 206.4 115.2 0 209.6-92.8 209.6-206.4V434.4c0.8-114.4-94.4-207.2-209.6-207.2z" fill="#6B3C1C" p-id="17306"></path><path d="M592 526.4c0-16.8 14.4-30.4 32-30.4s32 13.6 32 30.4" p-id="17307"></path><path d="M560 616c0 26.4-21.6 48-48 48s-48-21.6-48-48h96z" fill="#FFFFFF" p-id="17308"></path><path d="M424 464h-48c-4 0-8-3.2-8-8s3.2-8 8-8h48c4 0 8 3.2 8 8s-3.2 8-8 8zM648 464h-48c-4 0-8-3.2-8-8s3.2-8 8-8h48c4 0 8 3.2 8 8s-3.2 8-8 8z" fill="#6B3C1C" p-id="17309"></path><path d="M688.8 946.4c-3.2 0-6.4-1.6-7.2-4.8-4.8-12-9.6-22.4-14.4-32-2.4-4-0.8-8.8 3.2-11.2 4-2.4 8.8-0.8 11.2 3.2 5.6 10.4 10.4 21.6 15.2 34.4 1.6 4-0.8 8.8-4.8 10.4-1.6-0.8-2.4 0-3.2 0zM655.2 884.8c-2.4 0-4.8-0.8-6.4-3.2-20.8-28-44.8-40.8-64.8-49.6-4-1.6-5.6-6.4-4-10.4s6.4-5.6 10.4-4c22.4 10.4 48 23.2 71.2 55.2 2.4 3.2 1.6 8.8-1.6 11.2-1.6 0.8-3.2 0.8-4.8 0.8z" fill="#FFFFFF" p-id="17310"></path><path d="M528 568c0 8.8-7.2 16-16 16s-16-7.2-16-16v-40c0-8.8 7.2-16 16-16s16 7.2 16 16v40z" fill="#EFBFB4" p-id="17311"></path><path d="M175.2 461.6c0-3.2-3.2-6.4-8-7.2l-15.2-2.4c-4-0.8-8.8-4.8-8.8-8.8l-2.4-15.2c-0.8-4-4-8-7.2-8s-6.4 3.2-7.2 8l-2.4 15.2c-0.8 4-4.8 8.8-8.8 8.8l-15.2 2.4c-4 0.8-8 4-8 7.2s3.2 6.4 8 7.2l15.2 2.4c4 0.8 8.8 4.8 8.8 8.8l2.4 15.2c0.8 4 4 8 7.2 8s6.4-3.2 7.2-8l2.4-16.8c0.8-4 4.8-8 8.8-8.8l14.4-0.8c5.6-0.8 8.8-4 8.8-7.2zM603.2 85.6c0-3.2-3.2-6.4-8-7.2l-15.2-2.4c-4 0-8-4-8.8-8.8l-2.4-15.2c-0.8-4-4-8-7.2-8s-6.4 3.2-7.2 8L552 67.2c0.8 4.8-3.2 8.8-8 9.6l-15.2 2.4c-4 0.8-8 4-8 7.2s3.2 6.4 8 7.2l15.2 2.4c4 0.8 8.8 4.8 8.8 8.8l2.4 15.2c0.8 4 4 8 7.2 8s6.4-3.2 7.2-8l2.4-16.8c0.8-4 4.8-8 8.8-8.8l14.4-0.8c4.8-1.6 8-4.8 8-8zM248 783.2c-17.6 0-32-14.4-32-32s14.4-32 32-32 32 14.4 32 32c-0.8 18.4-14.4 32-32 32z m0-48c-9.6 0-16.8 7.2-16.8 16.8 0 9.6 7.2 16.8 16.8 16.8 9.6 0 16.8-7.2 16.8-16.8 0-9.6-8-16.8-16.8-16.8zM872 440c-17.6 0-32-14.4-32-32s14.4-32 32-32 32 14.4 32 32-14.4 32-32 32z m0-48.8c-9.6 0-16.8 8-16.8 16.8 0 9.6 8 16.8 16.8 16.8 9.6 0 16.8-8 16.8-16.8 0-9.6-7.2-16.8-16.8-16.8z" fill="#FFFFFF" p-id="17312"></path><path d="M328 436c0 20-16 36-36 36S256 456 256 436v-128c0-20 16-36 36-36H328v164z" fill="#AD5114" p-id="17313"></path><path d="M292 480c-24 0-44-20-44-44v-128c0-24 20-44 44-44H328c4.8 0 8 3.2 8 8v164c0 24-20 44-44 44z m0-200c-15.2 0-28 12.8-28 28v128c0 15.2 12.8 28 28 28s28-12.8 28-28V280h-28z" fill="#6B3C1C" p-id="17314"></path><path d="M696 436c0 20 16 36 36 36s36-16 36-36v-128c0-20-16-36-36-36H696v164z" fill="#AD5114" p-id="17315"></path><path d="M732 480c-24 0-44-20-44-44V272c0-4.8 3.2-8 8-8h36c24 0 44 20 44 44v128c0 24-20 44-44 44zM704 280v156c0 15.2 12.8 28 28 28s28-12.8 28-28v-128c0-15.2-12.8-28-28-28H704z" fill="#6B3C1C" p-id="17316"></path><path d="M744 265.6C744 319.2 700 360 646.4 360H328V265.6C328 212 372 168 425.6 168H744v97.6z" fill="#AD5114" p-id="17317"></path><path d="M646.4 296H328v64h318.4C700 360 744 319.2 744 265.6v-64C744 255.2 700 296 646.4 296z" fill="#993F0D" p-id="17318"></path><path d="M646.4 368H328c-4.8 0-8-3.2-8-8V265.6C320 207.2 367.2 160 425.6 160H744c4.8 0 8 3.2 8 8v97.6C752 323.2 705.6 368 646.4 368zM336 352h310.4C696.8 352 736 314.4 736 265.6V176H425.6C376 176 336 216 336 265.6V352z" fill="#6B3C1C" p-id="17319"></path><path d="M712 208h-48c-4.8 0-8-3.2-8-8s3.2-8 8-8h48c4.8 0 8 3.2 8 8s-3.2 8-8 8zM624 208H440c-4.8 0-8-3.2-8-8s3.2-8 8-8h184c4.8 0 8 3.2 8 8s-3.2 8-8 8z" fill="#FFFFFF" opacity=".5" p-id="17320"></path></svg>