<?xml version="1.0" standalone="no"?><!DOCTYPE svg PUBLIC "-//W3C//DTD SVG 1.1//EN" "http://www.w3.org/Graphics/SVG/1.1/DTD/svg11.dtd"><svg t="1553502233985" class="icon" style="" viewBox="0 0 1024 1024" version="1.1" xmlns="http://www.w3.org/2000/svg" p-id="5147" xmlns:xlink="http://www.w3.org/1999/xlink" width="200" height="200"><defs><style type="text/css"></style></defs><path d="M744.8 897.6H287.6c-52 0-94.6-42.6-94.6-94.6V575.7h646.3V803c0.1 52-42.5 94.6-94.5 94.6z" fill="#B2BBC5" p-id="5148"></path><path d="M946.5 181.8c-17.9-43.6-52.4-79.3-95.2-99.1C749 35.4 638.7 82.5 594.2 172H429.3C390.9 94.5 305.4 49.8 215.9 68.1c-63.7 13.1-117.5 59-140.7 119.7-38 99.5 10.4 202.8 96.5 244.6v62.4c-19.9 0-36.1 16.1-36.1 36.1v155.9C135.6 837.5 263 960 419.5 960h185c156.5 0 283.9-122.5 283.9-273.1V531c0-19.9-16.1-36.1-36.1-36.1v-62.5c88.4-42.8 136-149.2 94.2-250.6z m-129.2-25.3c24 11.4 43.6 31.6 54 56 21 49.4 5.2 100.2-29.9 130.7-23.5-75.5-82.8-135.2-157.9-159.4 31.3-35.6 83.9-51 133.8-27.3z m-592.7-7c44.7-12.5 88.6 2.7 116.2 34.2-75.2 24.2-134.6 83.9-158.1 159.4-35.1-30.5-51.2-81.3-29.7-130.8 13.1-30.3 39.7-53.9 71.6-62.8z m485.2 345.4c-24.6 0-44.1 22-40 47.4 3.2 19.9 22 33.7 42.2 33.7h95.3v110.9c0 105.9-91 192-202.8 192h-52v-116l67.3-70.4c14.5-15.2 3.3-39.8-18.2-39.8H422.4c-21.5 0-32.7 24.6-18.2 39.8l67.3 70.4v116h-52c-111.8 0-202.8-86.1-202.8-192V576H312c20.2 0 38.9-13.8 42.2-33.7 4.1-25.4-15.4-47.4-40-47.4h-61.4v-60h59c18.8 0 36.3-11.9 41.1-30 7.4-27.4-13.4-52.4-39.7-52.4h-47.8C290 294.1 347.8 253 415 253h193.8c67.2 0 125 41.1 149.6 99.5h-46.7c-18.8 0-36.3 11.9-41.1 30-7.3 27.4 13.4 52.4 39.7 52.4h60.8v60h-61.3z" fill="#242529" p-id="5149"></path></svg>